<?xml version="1.0" encoding="utf-8"?>
<!-- Generator: Adobe Illustrator 17.0.0, SVG Export Plug-In . SVG Version: 6.00 Build 0)  -->
<!DOCTYPE svg PUBLIC "-//W3C//DTD SVG 1.1//EN" "http://www.w3.org/Graphics/SVG/1.1/DTD/svg11.dtd">
<svg version="1.1" id="Calque_1" xmlns="http://www.w3.org/2000/svg" xmlns:xlink="http://www.w3.org/1999/xlink" x="0px" y="0px"
	 width="800px" height="800px" viewBox="0 0 800 800" enable-background="new 0 0 800 800" xml:space="preserve">
<g>
	<path fill="none" stroke="#1C274C" stroke-width="79" stroke-linecap="round" stroke-linejoin="round" d="M390.918,400
		l122.246,122.246 M390.918,400l122.246-122.246"/>
	<path fill="none" stroke="#1C274C" stroke-width="79" stroke-linecap="round" d="M286.836,515.84V407.276V298.131"/>
</g>
<path opacity="0.6" fill="none" stroke="#1C274C" stroke-width="71" enable-background="new    " d="M59.167,400
	c0-160.67,0-241.005,49.914-290.919S239.33,59.167,400,59.167c160.669,0,241.006,0,290.918,49.914
	C740.833,158.995,740.833,239.33,740.833,400c0,160.669,0,241.006-49.915,290.918C641.006,740.833,560.669,740.833,400,740.833
	c-160.67,0-241.005,0-290.919-49.915C59.167,641.006,59.167,560.669,59.167,400z"/>
</svg>
