<?xml version="1.0" encoding="utf-8"?>
<!-- Generator: Adobe Illustrator 17.0.0, SVG Export Plug-In . SVG Version: 6.00 Build 0)  -->
<!DOCTYPE svg PUBLIC "-//W3C//DTD SVG 1.1//EN" "http://www.w3.org/Graphics/SVG/1.1/DTD/svg11.dtd">
<svg version="1.1"
	 id="Calque_1" shape-rendering="geometricPrecision" image-rendering="optimizeQuality" text-rendering="geometricPrecision"
	 xmlns="http://www.w3.org/2000/svg" xmlns:xlink="http://www.w3.org/1999/xlink" x="0px" y="0px" width="780.389px"
	 height="717.421px" viewBox="0 0 780.389 717.421" enable-background="new 0 0 780.389 717.421" xml:space="preserve">
<g>
	<path fill="#FC3E81" d="M1,391.041v1.952c0-0.653,0.02-1.3,0.025-1.952H1z"/>
	<polygon fill="none" points="295.069,391.04 295.069,101.892 295.068,101.892 295.068,391.041 295.068,684.094 295.069,684.094 
		295.069,391.041 583.251,391.041 583.251,391.04 	"/>
	<path fill="#1DD1D9" d="M1.025,391.041h294.043V101.892c-0.977-0.01-1.95-0.037-2.93-0.037
		C131.999,101.855,2.077,231.15,1.025,391.041z"/>
	<path fill="#FC3E81" d="M1.025,391.041C1.02,391.693,1,392.34,1,392.993c0,160.791,130.347,291.138,291.138,291.138
		c0.98,0,1.953-0.027,2.93-0.037V391.041H1.025z"/>
	<path fill="#F9B200" d="M295.069,684.094c159.439-1.576,288.207-131.29,288.207-291.101c0-0.653-0.02-1.3-0.025-1.952H295.069
		V684.094z"/>
	<path fill="#C0FF66" d="M583.251,391.04c-1.046-158.912-129.395-287.579-288.182-289.148V391.04H583.251z"/>
</g>
<rect x="1508.369" y="342.019" fill="#1DD1D9" width="177.225" height="177.225"/>
<rect x="1685.594" y="342.019" fill="#64BDFF" width="177.225" height="177.225"/>
<rect x="1862.819" y="342.019" fill="#43A3F9" width="177.225" height="177.225"/>
<rect x="2040.044" y="342.019" fill="#7884EA" width="177.225" height="177.225"/>
<rect x="1508.369" y="519.244" fill="#FC3E81" width="177.225" height="177.225"/>
<rect x="1685.594" y="519.244" fill="#FD6096" width="177.225" height="177.225"/>
<rect x="1862.819" y="519.244" fill="#F9B200" width="177.225" height="177.225"/>
<rect x="2040.044" y="519.244" fill="#C0FF66" width="177.225" height="177.225"/>
<g>
	<path fill="#FFFFFF" stroke="#292929" stroke-width="24" stroke-miterlimit="10" d="M1786.953,598.344
		c21.392,0,44.665-26.773,34.723-53.547c-9.942-26.773-34.723-53.547-34.723-53.547s-24.782,26.773-34.723,53.547
		C1742.288,571.571,1767.004,598.344,1786.953,598.344z"/>
	<g>
		
			<path fill="#FFFFFF" stroke="#292929" stroke-width="52" stroke-linecap="round" stroke-linejoin="round" stroke-miterlimit="10" d="
			M1991.712,587.744c14.133,14.133,37.046,14.133,51.179,0l145.167-145.167c14.133-14.133,14.133-37.046,0-51.179l-141.452-141.452
			L1850.26,446.292L1991.712,587.744z"/>
		
			<polygon fill="#FFFFFF" stroke="#292929" stroke-width="52" stroke-linecap="round" stroke-linejoin="round" stroke-miterlimit="10" points="
			1850.26,446.292 1834.65,461.902 1801.132,428.385 1816.742,412.774 2013.088,216.428 2028.698,200.818 2062.216,234.336 
			2046.606,249.946 		"/>
	</g>
</g>
<g>
	<path fill="#FFFFFF" stroke="#292929" stroke-width="24" stroke-miterlimit="10" d="M239.324,626.758
		c55.042,0,93.108-55.81,72.382-111.623c-20.725-55.809-72.382-111.623-72.382-111.623s-51.66,55.809-72.382,111.623
		C146.216,570.948,190.893,626.758,239.324,626.758z"/>
	<g>
		
			<path fill="#FFFFFF" stroke="#292929" stroke-width="52" stroke-linecap="round" stroke-linejoin="round" stroke-miterlimit="10" d="
			M500.744,517.005c17.244,17.244,45.2,17.244,62.444,0l177.119-177.119c17.244-17.244,17.244-45.2,0-62.444L567.721,104.855
			L328.159,344.418L500.744,517.005z"/>
		<path fill="#C9CCFF" d="M500.744,517.005c17.244,17.244,45.2,17.244,62.444,0l45.582-45.582L407.158,265.419l-78.999,78.999
			L500.744,517.005z"/>
		
			<polygon fill="#292929" stroke="#292929" stroke-width="52" stroke-linecap="round" stroke-linejoin="round" stroke-miterlimit="10" points="
			309.113,363.464 268.217,322.57 545.872,44.914 586.767,85.81 		"/>
		<path fill="none" stroke="#292929" stroke-width="52" stroke-linecap="round" stroke-linejoin="round" stroke-miterlimit="10" d="
			M500.744,517.005c17.244,17.244,45.2,17.244,62.444,0l177.119-177.119c17.244-17.244,17.244-45.2,0-62.444L567.721,104.855
			L328.159,344.418L500.744,517.005z"/>
	</g>
</g>
<rect x="1058" y="-46.739" fill="#1DD1D9" width="301.348" height="301.349"/>
<rect x="1058" y="254.61" fill="#FC3E81" width="301.348" height="301.348"/>
<rect x="1359.349" y="254.61" fill="#F9B200" width="301.348" height="301.348"/>
<rect x="1359.349" y="-46.739" fill="#C0FF66" width="301.349" height="301.348"/>
<g>
	<path fill="#FFFFFF" stroke="#292929" stroke-width="24" stroke-miterlimit="10" d="M1275.224,523.162
		c56.405,0,95.413-57.192,74.174-114.386c-21.238-57.191-74.174-114.386-74.174-114.386s-52.939,57.191-74.174,114.386
		C1179.811,465.971,1225.594,523.162,1275.224,523.162z"/>
	<g>
		
			<path fill="#FFFFFF" stroke="#292929" stroke-width="52" stroke-linecap="round" stroke-linejoin="round" stroke-miterlimit="10" d="
			M1543.116,410.692c17.671,17.671,46.319,17.671,63.99,0l181.504-181.504c17.671-17.671,17.671-46.319,0-63.99L1611.751-11.661
			l-245.493,245.494L1543.116,410.692z"/>
		<path fill="#C9CCFF" d="M1543.116,410.692c17.671,17.671,46.319,17.671,63.99,0l46.71-46.71l-206.603-211.104l-80.955,80.955
			L1543.116,410.692z"/>
		
			<polygon fill="#292929" stroke="#292929" stroke-width="52" stroke-linecap="round" stroke-linejoin="round" stroke-miterlimit="10" points="
			1346.741,253.35 1304.832,211.444 1589.361,-73.086 1631.268,-31.178 		"/>
		<path fill="none" stroke="#292929" stroke-width="52" stroke-linecap="round" stroke-linejoin="round" stroke-miterlimit="10" d="
			M1543.116,410.692c17.671,17.671,46.319,17.671,63.99,0l181.504-181.504c17.671-17.671,17.671-46.319,0-63.99L1611.751-11.661
			l-245.493,245.494L1543.116,410.692z"/>
	</g>
</g>
</svg>
