<?xml version="1.0" encoding="utf-8"?>
<!-- Generator: Adobe Illustrator 17.0.0, SVG Export Plug-In . SVG Version: 6.00 Build 0)  -->
<!DOCTYPE svg PUBLIC "-//W3C//DTD SVG 1.1//EN" "http://www.w3.org/Graphics/SVG/1.1/DTD/svg11.dtd">
<svg version="1.1" id="Calque_1" xmlns="http://www.w3.org/2000/svg" xmlns:xlink="http://www.w3.org/1999/xlink" x="0px" y="0px"
	 width="58.667px" height="58.667px" viewBox="0 0 58.667 58.667" enable-background="new 0 0 58.667 58.667" xml:space="preserve">
<g>
	<g>
		<path d="M33.026,19.513c-2.031,0-3.683-1.652-3.683-3.683s1.652-3.683,3.683-3.683s3.683,1.652,3.683,3.683
			S35.056,19.513,33.026,19.513z M33.026,14.603c-0.676,0-1.228,0.55-1.228,1.228c0,0.677,0.551,1.228,1.228,1.228
			s1.228-0.55,1.228-1.228C34.253,15.153,33.702,14.603,33.026,14.603z"/>
	</g>
	<g>
		<path d="M42.846,29.333c-2.031,0-3.683-1.652-3.683-3.683s1.652-3.683,3.683-3.683s3.683,1.652,3.683,3.683
			S44.876,29.333,42.846,29.333z M42.846,24.423c-0.676,0-1.228,0.55-1.228,1.228s0.551,1.228,1.228,1.228s1.228-0.55,1.228-1.228
			S43.522,24.423,42.846,24.423z"/>
	</g>
	<g>
		<path d="M20.75,21.968c-2.031,0-3.683-1.652-3.683-3.683s1.652-3.683,3.683-3.683s3.683,1.652,3.683,3.683
			S22.781,21.968,20.75,21.968z M20.75,17.058c-0.677,0-1.228,0.55-1.228,1.228c0,0.677,0.55,1.228,1.228,1.228
			s1.228-0.55,1.228-1.228C21.978,17.608,21.428,17.058,20.75,17.058z"/>
	</g>
	<g>
		<path d="M15.84,34.243c-2.031,0-3.683-1.652-3.683-3.683s1.652-3.683,3.683-3.683s3.683,1.652,3.683,3.683
			S17.871,34.243,15.84,34.243z M15.84,29.333c-0.677,0-1.228,0.55-1.228,1.228c0,0.676,0.55,1.228,1.228,1.228
			c0.677,0,1.228-0.551,1.228-1.228C17.068,29.884,16.517,29.333,15.84,29.333z"/>
	</g>
	<g>
		<path d="M29.343,56.339c-14.891,0-27.006-12.115-27.006-27.006S14.452,2.328,29.343,2.328c14.805,0,26.912,10.831,26.987,24.143
			c0,8.885-7.219,16.104-16.095,16.104h-4.898c-0.515,0.007-0.909,0.177-1.201,0.48c-0.29,0.302-0.446,0.698-0.439,1.115
			c0,0.667,0.18,0.897,0.35,1.064c1.196,1.347,1.798,2.906,1.798,4.505C35.845,53.44,32.99,56.339,29.343,56.339z M29.343,7.238
			c-12.183,0-22.096,9.913-22.096,22.096c0,12.184,9.913,22.096,22.096,22.096c0.907,0,1.592-0.726,1.592-1.69
			c0-0.393-0.165-0.806-0.457-1.134c-1.086-1.072-1.691-2.587-1.691-4.39c-0.031-1.685,0.614-3.325,1.817-4.572
			c1.204-1.244,2.817-1.947,4.548-1.978h5.083c6.166,0,11.184-5.016,11.184-11.18C51.359,16.058,41.251,7.238,29.343,7.238z"/>
	</g>
</g>
</svg>
