<?xml version="1.0" encoding="utf-8"?>
<!-- Generator: Adobe Illustrator 17.0.0, SVG Export Plug-In . SVG Version: 6.00 Build 0)  -->
<!DOCTYPE svg PUBLIC "-//W3C//DTD SVG 1.1//EN" "http://www.w3.org/Graphics/SVG/1.1/DTD/svg11.dtd">
<svg version="1.1"
	 id="Calque_1" text-rendering="geometricPrecision" image-rendering="optimizeQuality" shape-rendering="geometricPrecision"
	 xmlns="http://www.w3.org/2000/svg" xmlns:xlink="http://www.w3.org/1999/xlink" x="0px" y="0px" width="780.389px"
	 height="717.421px" viewBox="0 -37.463 780.389 717.421" enable-background="new 0 -37.463 780.389 717.421" xml:space="preserve">
<rect x="1508.369" y="342.019" fill="#1DD1D9" width="177.225" height="177.225"/>
<rect x="1685.594" y="342.019" fill="#64BDFF" width="177.225" height="177.225"/>
<rect x="1862.819" y="342.019" fill="#43A3F9" width="177.225" height="177.225"/>
<rect x="2040.044" y="342.019" fill="#7884EA" width="177.225" height="177.225"/>
<rect x="1508.369" y="519.244" fill="#FC3E81" width="177.225" height="177.225"/>
<rect x="1685.594" y="519.244" fill="#FD6096" width="177.225" height="177.225"/>
<rect x="1862.819" y="519.244" fill="#F9B200" width="177.225" height="177.225"/>
<rect x="2040.044" y="519.244" fill="#C0FF66" width="177.225" height="177.225"/>
<g>
	<path fill="#FFFFFF" stroke="#292929" stroke-width="24" stroke-miterlimit="10" d="M1786.953,598.344
		c21.392,0,44.665-26.773,34.723-53.547c-9.942-26.773-34.723-53.547-34.723-53.547s-24.782,26.773-34.723,53.547
		C1742.288,571.571,1767.004,598.344,1786.953,598.344z"/>
	<g>
		
			<path fill="#FFFFFF" stroke="#292929" stroke-width="52" stroke-linecap="round" stroke-linejoin="round" stroke-miterlimit="10" d="
			M1991.712,587.744c14.133,14.133,37.046,14.133,51.179,0l145.167-145.167c14.133-14.133,14.133-37.046,0-51.179l-141.452-141.452
			L1850.26,446.292L1991.712,587.744z"/>
		
			<polygon fill="#FFFFFF" stroke="#292929" stroke-width="52" stroke-linecap="round" stroke-linejoin="round" stroke-miterlimit="10" points="
			1850.26,446.292 1834.65,461.902 1801.132,428.385 1816.742,412.774 2013.088,216.428 2028.698,200.818 2062.216,234.336 
			2046.606,249.946 		"/>
	</g>
</g>
<rect x="6" y="71.261" fill="#1DD1D9" width="301.348" height="301.349"/>
<rect x="6" y="372.61" fill="#FC3E81" width="301.348" height="301.348"/>
<rect x="307.349" y="372.61" fill="#F9B200" width="301.348" height="301.348"/>
<rect x="307.349" y="71.261" fill="#C0FF66" width="301.349" height="301.348"/>
<g>
	<path fill="#FFFFFF" stroke="#292929" stroke-width="24" stroke-miterlimit="10" d="M223.224,641.162
		c56.405,0,95.413-57.192,74.174-114.386c-21.238-57.191-74.174-114.386-74.174-114.386s-52.939,57.191-74.174,114.386
		C127.811,583.971,173.594,641.162,223.224,641.162z"/>
	<g>
		
			<path fill="#FFFFFF" stroke="#292929" stroke-width="52" stroke-linecap="round" stroke-linejoin="round" stroke-miterlimit="10" d="
			M491.116,528.692c17.671,17.671,46.319,17.671,63.99,0L736.61,347.188c17.671-17.671,17.671-46.319,0-63.99L559.751,106.339
			L314.258,351.833L491.116,528.692z"/>
		<path fill="#C9CCFF" d="M491.116,528.692c17.671,17.671,46.319,17.671,63.99,0l46.71-46.71L395.213,270.878l-80.955,80.955
			L491.116,528.692z"/>
		
			<polygon fill="#292929" stroke="#292929" stroke-width="52" stroke-linecap="round" stroke-linejoin="round" stroke-miterlimit="10" points="
			294.741,371.35 252.832,329.444 537.361,44.914 579.268,86.822 		"/>
		<path fill="none" stroke="#292929" stroke-width="52" stroke-linecap="round" stroke-linejoin="round" stroke-miterlimit="10" d="
			M491.116,528.692c17.671,17.671,46.319,17.671,63.99,0L736.61,347.188c17.671-17.671,17.671-46.319,0-63.99L559.751,106.339
			L314.258,351.833L491.116,528.692z"/>
	</g>
</g>
</svg>
