<?xml version="1.0" encoding="utf-8"?>
<!-- Generator: Adobe Illustrator 17.0.0, SVG Export Plug-In . SVG Version: 6.00 Build 0)  -->
<!DOCTYPE svg PUBLIC "-//W3C//DTD SVG 1.1//EN" "http://www.w3.org/Graphics/SVG/1.1/DTD/svg11.dtd">
<svg version="1.1" id="Calque_1" xmlns="http://www.w3.org/2000/svg" xmlns:xlink="http://www.w3.org/1999/xlink" x="0px" y="0px"
	 width="24px" height="24px" viewBox="0 0 24 24" enable-background="new 0 0 24 24" xml:space="preserve">
<circle fill="none" stroke="#000000" stroke-width="2" stroke-linecap="round" stroke-linejoin="round" cx="13.5" cy="6.5" r="0.5"/>
<circle fill="none" stroke="#000000" stroke-width="2" stroke-linecap="round" stroke-linejoin="round" cx="17.5" cy="10.5" r="0.5"/>
<circle fill="none" stroke="#000000" stroke-width="2" stroke-linecap="round" stroke-linejoin="round" cx="8.5" cy="7.5" r="0.5"/>
<circle fill="none" stroke="#000000" stroke-width="2" stroke-linecap="round" stroke-linejoin="round" cx="6.5" cy="12.5" r="0.5"/>
<path fill="none" stroke="#000000" stroke-width="2" stroke-linecap="round" stroke-linejoin="round" d="M12,2C6.5,2,2,6.5,2,12
	s4.5,10,10,10c0.926,0,1.648-0.746,1.648-1.688c0-0.437-0.18-0.835-0.437-1.125c-0.29-0.289-0.438-0.652-0.438-1.125
	c-0.016-0.906,0.706-1.652,1.612-1.668c0.019,0,0.038,0,0.056,0h1.996c3.051,0,5.555-2.503,5.555-5.554C21.965,6.012,17.461,2,12,2z
	"/>
</svg>
