<?xml version="1.0" encoding="utf-8"?>
<!-- Generator: Adobe Illustrator 17.0.0, SVG Export Plug-In . SVG Version: 6.00 Build 0)  -->
<!DOCTYPE svg PUBLIC "-//W3C//DTD SVG 1.1//EN" "http://www.w3.org/Graphics/SVG/1.1/DTD/svg11.dtd">
<svg version="1.1" id="Calque_1" xmlns="http://www.w3.org/2000/svg" xmlns:xlink="http://www.w3.org/1999/xlink" x="0px" y="0px"
	 width="800px" height="800px" viewBox="0 0 800 800" enable-background="new 0 0 800 800" xml:space="preserve">
<g>
	<path fill="#D06AFF" stroke="#1C274C" stroke-width="71" enable-background="new    " d="M42.667,242.5
		c0-86.188,0-129.282,26.775-156.058S139.312,59.667,225.5,59.667c86.188,0,129.283,0,156.057,26.775
		c26.776,26.775,26.776,69.869,26.776,156.058c0,86.188,0,129.283-26.776,156.057c-26.774,26.776-69.869,26.776-156.057,26.776
		c-86.188,0-129.282,0-156.058-26.776C42.667,371.783,42.667,328.688,42.667,242.5z"/>
	<path fill="#0A8FFF" stroke="#1C274C" stroke-width="71" enable-background="new    " d="M235.667,479.5
		c0-122.958,0-184.437,38.198-222.635s99.677-38.198,222.635-38.198c122.957,0,184.437,0,222.634,38.198
		c38.199,38.198,38.199,99.677,38.199,222.635c0,122.957,0,184.437-38.199,222.634c-38.197,38.199-99.677,38.199-222.634,38.199
		c-122.958,0-184.437,0-222.635-38.199C235.667,663.937,235.667,602.457,235.667,479.5z"/>
</g>
</svg>
