<?xml version="1.0" encoding="utf-8"?>
<!-- Generator: Adobe Illustrator 17.0.0, SVG Export Plug-In . SVG Version: 6.00 Build 0)  -->
<!DOCTYPE svg PUBLIC "-//W3C//DTD SVG 1.1//EN" "http://www.w3.org/Graphics/SVG/1.1/DTD/svg11.dtd">
<svg version="1.1" id="Calque_1" xmlns="http://www.w3.org/2000/svg" xmlns:xlink="http://www.w3.org/1999/xlink" x="0px" y="0px"
	 width="800px" height="800px" viewBox="0 0 800 800" enable-background="new 0 0 800 800" xml:space="preserve">
<g>
	<path fill="none" stroke="#1C274C" stroke-width="62" stroke-linecap="round" stroke-linejoin="round" d="M400,449.788V163.531
		 M400,163.532L277.319,286.213 M400,163.532l122.681,122.681"/>
	<path fill="none" stroke="#1C274C" stroke-width="62" stroke-linecap="round" d="M563.576,572.469H400H236.425"/>
</g>
<path opacity="0.6" fill="none" stroke="#1C274C" stroke-width="80" enable-background="new    " d="M564.379,390.806
	c58.738,2.656,97.713,8.945,126.539,23.829c49.915,25.772,49.915,67.253,49.915,150.213s0,124.441-49.915,150.212
	C641.006,740.833,560.669,740.833,400,740.833c-160.67,0-241.005,0-290.919-25.773c-49.914-25.772-49.914-67.253-49.914-150.212
	c0-82.96,0-124.44,49.914-150.213c31.5-16.265,58.399-20.586,126.395-24.479"/>
<path opacity="0.6" fill="none" stroke="#1C274C" stroke-width="80" enable-background="new    " d="M564.379,390.806"/>
</svg>
