<?xml version="1.0" encoding="utf-8"?>
<!-- Generator: Adobe Illustrator 17.0.0, SVG Export Plug-In . SVG Version: 6.00 Build 0)  -->
<!DOCTYPE svg PUBLIC "-//W3C//DTD SVG 1.1//EN" "http://www.w3.org/Graphics/SVG/1.1/DTD/svg11.dtd">
<svg version="1.1" id="Calque_1" xmlns="http://www.w3.org/2000/svg" xmlns:xlink="http://www.w3.org/1999/xlink" x="0px" y="0px"
	 width="800px" height="800px" viewBox="0 0 800 800" enable-background="new 0 0 800 800" xml:space="preserve">
<g>
	<path fill="none" stroke="#1C274C" stroke-width="62" stroke-linecap="round" stroke-linejoin="round" d="M400,405.788V119.531
		 M400,119.532L277.319,242.213 M400,119.532l122.681,122.681"/>
	<path fill="none" stroke="#1C274C" stroke-width="62" stroke-linecap="round" d="M563.576,557.469H400H236.425"/>
</g>
<path opacity="0.6" fill="none" stroke="#1C274C" stroke-width="80" enable-background="new    " d="M564.379,392.303
	c58.738,2.645,97.713,8.906,126.539,23.727c49.915,25.662,49.915,66.965,49.915,149.57c0,82.605,0,123.908-49.915,149.57
	C641.006,740.833,560.669,740.833,400,740.833c-160.67,0-241.005,0-290.919-25.663c-49.914-25.661-49.914-66.965-49.914-149.57
	c0-82.605,0-123.908,49.914-149.57c31.5-16.195,58.399-20.498,126.395-24.374"/>
<path opacity="0.6" fill="none" stroke="#1C274C" stroke-width="80" enable-background="new    " d="M564.379,330.92"/>
</svg>
