<?xml version="1.0" encoding="utf-8"?>
<!-- Generator: Adobe Illustrator 17.0.0, SVG Export Plug-In . SVG Version: 6.00 Build 0)  -->
<!DOCTYPE svg PUBLIC "-//W3C//DTD SVG 1.1//EN" "http://www.w3.org/Graphics/SVG/1.1/DTD/svg11.dtd">
<svg version="1.1" id="Calque_1" xmlns="http://www.w3.org/2000/svg" xmlns:xlink="http://www.w3.org/1999/xlink" x="0px" y="0px"
	 width="800px" height="800px" viewBox="0 0 800 800" enable-background="new 0 0 800 800" xml:space="preserve">
<g>
	<g>
		<path fill="none" stroke="#1C274C" stroke-width="71" enable-background="new    " d="M58,399c0-167.741,0-251.612,21.106-303.722
			s55.075-52.111,123.013-52.111c67.938,0,125.852-3.544,135.381,46.333c10.551,55.224,8.738,141.759,8.738,309.5
			c0,167.74,0,251.613-21.106,303.721c-21.105,52.112-55.075,52.112-123.013,52.112c-67.938,0-101.907,0-123.013-52.112
			C58,650.613,58,566.74,58,399z"/>
	</g>
	<g>
		<path fill="none" stroke="#1C274C" stroke-width="71" enable-background="new    " d="M453.763,399
			c0-167.741-9.368-257.389,11.737-309.5c21.106-52.111,64.443-46.333,132.381-46.333c67.938,0,110.965,21.772,127.013,52.111
			C760.453,162.503,742,231.259,742,399c0,167.74,0,251.613-21.106,303.721c-21.105,52.112-55.075,52.112-123.013,52.112
			c-67.938,0-101.907,0-123.013-52.112C453.763,650.613,453.763,566.74,453.763,399z"/>
	</g>
</g>
</svg>
