<?xml version="1.0" encoding="utf-8"?>
<!-- Generator: Adobe Illustrator 17.0.0, SVG Export Plug-In . SVG Version: 6.00 Build 0)  -->
<!DOCTYPE svg PUBLIC "-//W3C//DTD SVG 1.1//EN" "http://www.w3.org/Graphics/SVG/1.1/DTD/svg11.dtd">
<svg version="1.1" id="Calque_1" xmlns="http://www.w3.org/2000/svg" xmlns:xlink="http://www.w3.org/1999/xlink" x="0px" y="0px"
	 width="800px" height="800px" viewBox="0 0 800 800" enable-background="new 0 0 800 800" xml:space="preserve">
<path opacity="0.6" fill="none" stroke="#1C274C" stroke-width="80" enable-background="new    " d="M927.961,1055.443
	c58.738,4.629,97.713,15.587,126.539,41.526c49.915,44.912,49.915,117.197,49.915,261.766c0,144.568,0,216.855-49.915,261.765
	c-49.912,44.913-130.249,44.913-290.918,44.913c-160.67,0-241.005,0-290.919-44.913c-49.914-44.91-49.914-117.197-49.914-261.765
	c0-144.569,0-216.854,49.914-261.766c31.5-28.344,58.399-35.875,126.395-42.657"/>
<g>
	
		<line fill="none" stroke="#1C274C" stroke-width="71" stroke-linecap="round" x1="453.338" y1="346.318" x2="576.108" y2="223.549"/>
	
		<line fill="none" stroke="#1C274C" stroke-width="71" stroke-linecap="round" x1="698.877" y1="100.779" x2="576.108" y2="223.549"/>
	
		<line fill="none" stroke="#1C274C" stroke-width="71" stroke-linecap="round" x1="576.108" y1="223.549" x2="698.877" y2="346.318"/>
	
		<line fill="none" stroke="#1C274C" stroke-width="71" stroke-linecap="round" x1="576.108" y1="223.549" x2="453.338" y2="100.779"/>
</g>
<path opacity="0.6" fill="#1C274C" enable-background="new    " d="M398.759,768.833c-78.125,0-134.572,0-180.622-6.192
	c-53.765-7.228-90.4-23.11-118.785-51.495c-28.385-28.385-44.266-65.019-51.495-118.785c-6.191-46.05-6.191-102.495-6.191-180.62
	s0-134.572,6.191-180.621c7.228-53.765,23.11-90.4,51.495-118.785c28.385-28.385,65.02-44.267,118.786-51.495
	c31.494-4.234,67.852-5.573,112.682-5.996c11.068,28.337,37.339,73.449,37.339,73.449c-120.47,0.189-183.341,2.705-216.742,36.106
	c-36.121,36.121-36.121,106.71-36.121,247.343s0,211.221,36.121,247.341c36.122,36.122,106.711,36.122,247.343,36.122
	s211.222,0,247.34-36.121c34.349-34.346,36.037-99.856,36.12-227.113c0.004-6.577,73.634,17.292,73.539,34.215
	c-0.288,51.116-1.445,91.581-6.097,126.178c-7.229,53.766-23.112,90.4-51.497,118.785c-28.383,28.384-65.017,44.266-118.783,51.494
	C533.33,768.833,476.884,768.833,398.759,768.833z"/>
<path opacity="0.6" fill="none" stroke="#1C274C" stroke-width="71" enable-background="new    " d="M1134.137,639.512
	c0-160.67,0-241.005,49.914-290.919c49.914-49.914,130.249-49.914,290.919-49.914c160.669,0,241.006,0,290.918,49.914
	c49.915,49.914,49.915,130.249,49.915,290.919c0,160.669,0,241.006-49.915,290.918c-49.912,49.915-130.249,49.915-290.918,49.915
	c-160.67,0-241.005,0-290.919-49.915C1134.137,880.518,1134.137,800.181,1134.137,639.512z"/>
</svg>
